<svg version="1.1" id="Layer_1" xmlns="http://www.w3.org/2000/svg" xmlns:xlink="http://www.w3.org/1999/xlink" x="0px" y="0px"
	 width="100%" viewBox="0 0 4000 4000" enable-background="new 0 0 4000 4000" xml:space="preserve">
<path fill="#000000" opacity="1.000000" stroke="none" 
	d="
M1930.000000,4002.000000 
	C1286.666626,4002.000000 644.333313,4002.000000 2.000000,4002.000000 
	C2.000000,2668.666748 2.000000,1335.333374 2.000000,2.000000 
	C1335.333374,2.000000 2668.666748,2.000000 4002.000000,2.000000 
	C4002.000000,1335.333374 4002.000000,2668.666748 4002.000000,4002.000000 
	C3311.666748,4002.000000 2621.333252,4002.000000 1930.000000,4002.000000 
M1400.354858,1075.966431 
	C1400.317261,1158.510132 1400.279663,1241.053955 1400.045898,1325.513428 
	C1400.193237,1860.137085 1400.340454,2394.760742 1400.503906,2929.384521 
	C1400.503906,2929.682129 1400.704590,2930.010742 1400.890015,2930.268311 
	C1401.080811,2930.533691 1401.367798,2930.729980 1402.780762,2932.036621 
	C1405.812866,2932.036621 1410.077271,2932.036621 1414.341553,2932.036621 
	C1628.997070,2932.036377 1843.652588,2932.037598 2058.308105,2932.028809 
	C2062.306396,2932.028809 2066.304932,2931.914551 2072.116699,2932.165527 
	C2072.780518,2932.215332 2073.444580,2932.308838 2074.108398,2932.308838 
	C2249.243164,2932.318848 2424.377930,2932.323975 2599.512695,2932.302002 
	C2601.383789,2932.301758 2603.254883,2931.943115 2605.703857,2931.692871 
	C2605.703857,2848.171143 2605.703857,2765.322266 2605.857422,2680.545166 
	C2605.891846,2676.879395 2605.956543,2673.213867 2605.956787,2669.548096 
	C2605.961182,2141.899658 2605.960693,1614.251099 2605.960693,1086.602661 
	C2605.960693,1084.602783 2606.069580,1082.595215 2605.932617,1080.604858 
	C2605.757324,1078.052856 2605.383789,1075.514648 2605.118164,1073.169556 
	C2593.090820,1071.201416 2344.258545,1071.684204 2336.039062,1073.844116 
	C2336.039062,1077.819946 2336.038818,1082.078247 2336.038818,1086.336426 
	C2336.038818,1272.330078 2336.038818,1458.323608 2336.038818,1644.317261 
	C2336.038818,1651.983643 2335.624512,1659.679565 2336.170166,1667.307007 
	C2336.600586,1673.326660 2333.962891,1676.158081 2328.904785,1678.677734 
	C2244.813965,1720.569458 2160.804932,1762.624268 2076.753906,1804.595581 
	C2074.867432,1805.537476 2072.706299,1805.929321 2069.551758,1806.935669 
	C2069.551758,1561.670532 2069.551758,1317.484375 2069.551758,1072.039795 
	C2065.104736,1072.039795 2061.542725,1072.039795 2057.980469,1072.039795 
	C1976.316650,1072.039795 1894.652832,1072.008301 1812.989136,1072.141724 
	C1809.270996,1072.147705 1805.555054,1073.640747 1800.301270,1073.723999 
	C1796.802734,1073.260864 1793.304565,1072.394897 1789.805786,1072.393066 
	C1663.903809,1072.323608 1538.001831,1072.333252 1412.099854,1072.344238 
	C1408.772827,1072.344482 1405.445679,1072.482666 1401.010254,1072.181763 
	C1400.859009,1072.826660 1400.707764,1073.471680 1400.354858,1075.966431 
z"/>
<path fill="#1A132F" opacity="1.000000" stroke="none" 
	d="
M2070.303223,2931.853760 
	C2066.304932,2931.914551 2062.306396,2932.028809 2058.308105,2932.028809 
	C1843.652588,2932.037598 1628.997070,2932.036377 1414.341553,2932.036621 
	C1410.077271,2932.036621 1405.812866,2932.036621 1402.780762,2932.036621 
	C1401.367798,2930.729980 1401.080811,2930.533691 1400.890015,2930.268311 
	C1400.704590,2930.010742 1400.503906,2929.682129 1400.503906,2929.384521 
	C1400.340454,2394.760742 1400.193237,1860.137085 1401.040039,1324.787354 
	C1405.683105,1324.151611 1409.332153,1324.320435 1412.981079,1324.321045 
	C1495.037354,1324.336060 1577.093506,1324.327271 1659.149780,1324.349731 
	C1662.790894,1324.350830 1666.432007,1324.604614 1670.074707,1325.631104 
	C1670.037842,1329.854126 1669.965820,1333.186646 1669.965820,1336.519287 
	C1669.960815,1774.502808 1669.961304,2212.486328 1669.961182,2650.469971 
	C1669.961182,2652.136475 1669.854858,2653.812012 1669.988647,2655.467773 
	C1670.194214,2658.012207 1670.565186,2660.543701 1670.841675,2662.876221 
	C1683.106934,2664.796387 1793.774292,2664.313965 1801.960205,2662.156494 
	C1801.960205,2657.857666 1801.960205,2653.259521 1801.960205,2648.661133 
	C1801.960205,2213.344238 1801.960327,1778.027222 1801.957275,1342.710205 
	C1801.957275,1336.377930 1801.916260,1330.045776 1801.793701,1322.798950 
	C1801.684814,1302.926636 1801.657715,1283.968750 1801.671997,1265.010986 
	C1801.719482,1201.487793 1801.781616,1137.964478 1801.838135,1074.441284 
	C1805.555054,1073.640747 1809.270996,1072.147705 1812.989136,1072.141724 
	C1894.652832,1072.008301 1976.316650,1072.039795 2057.980469,1072.039795 
	C2061.542725,1072.039795 2065.104736,1072.039795 2069.551758,1072.039795 
	C2069.551758,1317.484375 2069.551758,1561.670532 2069.551758,1806.935669 
	C2072.706299,1805.929321 2074.867432,1805.537476 2076.753906,1804.595581 
	C2160.804932,1762.624268 2244.813965,1720.569458 2328.904785,1678.677734 
	C2333.962891,1676.158081 2336.600586,1673.326660 2336.170166,1667.307007 
	C2335.624512,1659.679565 2336.038818,1651.983643 2336.038818,1644.317261 
	C2336.038818,1458.323608 2336.038818,1272.330078 2336.038818,1086.336426 
	C2336.038818,1082.078247 2336.039062,1077.819946 2336.039062,1073.844116 
	C2344.258545,1071.684204 2593.090820,1071.201416 2605.118164,1073.169556 
	C2605.383789,1075.514648 2605.757324,1078.052856 2605.932617,1080.604858 
	C2606.069580,1082.595215 2605.960693,1084.602783 2605.960693,1086.602661 
	C2605.960693,1614.251099 2605.961182,2141.899658 2605.956787,2669.548096 
	C2605.956543,2673.213867 2605.891846,2676.879395 2605.031494,2681.128418 
	C2600.709473,2681.252441 2597.213867,2680.395752 2593.717529,2680.392578 
	C2511.459717,2680.317383 2429.201904,2680.339844 2346.944092,2680.316650 
	C2343.294678,2680.315674 2339.645020,2680.054443 2336.010498,2678.982910 
	C2335.888184,2434.800293 2335.751221,2191.549316 2335.596436,1948.298462 
	C2335.596191,1947.996582 2335.392334,1947.635132 2335.172363,1947.410034 
	C2334.955078,1947.187622 2334.596680,1947.102783 2333.572998,1946.601807 
	C2331.096924,1947.705566 2328.068604,1948.918579 2325.160400,1950.372192 
	C2243.525391,1991.170166 2161.949463,2032.087280 2080.198730,2072.651855 
	C2072.647705,2076.398682 2069.750488,2080.680664 2069.762939,2089.307373 
	C2070.048584,2286.255859 2070.018066,2483.204834 2070.062012,2680.669922 
	C2070.236084,2681.491943 2070.394775,2681.797607 2070.454590,2683.029297 
	C2070.338379,2766.588135 2070.320801,2849.220947 2070.303223,2931.853760 
z"/>
<path fill="#FFFFFF" opacity="1.000000" stroke="none" 
	d="
M2335.995605,2679.914795 
	C2339.645020,2680.054443 2343.294678,2680.315674 2346.944092,2680.316650 
	C2429.201904,2680.339844 2511.459717,2680.317383 2593.717529,2680.392578 
	C2597.213867,2680.395752 2600.709473,2681.252441 2604.954590,2682.092285 
	C2605.703857,2765.322266 2605.703857,2848.171143 2605.703857,2931.692871 
	C2603.254883,2931.943115 2601.383789,2932.301758 2599.512695,2932.302002 
	C2424.377930,2932.323975 2249.243164,2932.318848 2074.108398,2932.308838 
	C2073.444580,2932.308838 2072.780518,2932.215332 2071.209961,2932.009766 
	C2070.320801,2849.220947 2070.338379,2766.588135 2070.830566,2682.910156 
	C2071.789062,2681.558105 2072.050293,2681.118652 2073.015625,2680.450195 
	C2157.652832,2680.347656 2241.363037,2680.346191 2325.072998,2680.316650 
	C2328.713867,2680.315430 2332.354736,2680.054688 2335.995605,2679.914795 
z"/>
<path fill="#FFFFFF" opacity="1.000000" stroke="none" 
	d="
M1801.069702,1074.082642 
	C1801.781616,1137.964478 1801.719482,1201.487793 1801.671997,1265.010986 
	C1801.657715,1283.968750 1801.684814,1302.926636 1800.885254,1323.011230 
	C1774.268555,1324.201172 1748.459473,1324.229370 1722.650635,1324.339111 
	C1705.124512,1324.413574 1687.598999,1324.602661 1670.073120,1324.740479 
	C1666.432007,1324.604614 1662.790894,1324.350830 1659.149780,1324.349731 
	C1577.093506,1324.327271 1495.037354,1324.336060 1412.981079,1324.321045 
	C1409.332153,1324.320435 1405.683105,1324.151611 1401.138062,1323.829468 
	C1400.279663,1241.053955 1400.317261,1158.510132 1400.857056,1074.953979 
	C1401.878418,1073.625854 1402.131592,1073.164185 1402.118652,1072.556641 
	C1405.445679,1072.482666 1408.772827,1072.344482 1412.099854,1072.344238 
	C1538.001831,1072.333252 1663.903809,1072.323608 1789.805786,1072.393066 
	C1793.304565,1072.394897 1796.802734,1073.260864 1801.069702,1074.082642 
z"/>
<path fill="#BFBFBF" opacity="1.000000" stroke="none" 
	d="
M1401.564453,1072.369141 
	C1402.131592,1073.164185 1401.878418,1073.625854 1400.957886,1074.029053 
	C1400.707764,1073.471680 1400.859009,1072.826660 1401.564453,1072.369141 
z"/>
<path fill="#000000" opacity="1.000000" stroke="none" 
	d="
M2336.010498,2678.982910 
	C2332.354736,2680.054688 2328.713867,2680.315430 2325.072998,2680.316650 
	C2241.363037,2680.346191 2157.652832,2680.347656 2072.534668,2680.200195 
	C2070.766357,2680.082031 2070.406494,2680.117676 2070.046631,2680.153564 
	C2070.018066,2483.204834 2070.048584,2286.255859 2069.762939,2089.307373 
	C2069.750488,2080.680664 2072.647705,2076.398682 2080.198730,2072.651855 
	C2161.949463,2032.087280 2243.525391,1991.170166 2325.160400,1950.372192 
	C2328.068604,1948.918579 2331.096924,1947.705566 2333.572998,1946.601807 
	C2334.596680,1947.102783 2334.955078,1947.187622 2335.172363,1947.410034 
	C2335.392334,1947.635132 2335.596191,1947.996582 2335.596436,1948.298462 
	C2335.751221,2191.549316 2335.888184,2434.800293 2336.010498,2678.982910 
z"/>
<path fill="#000000" opacity="1.000000" stroke="none" 
	d="
M1670.074707,1325.630981 
	C1687.598999,1324.602661 1705.124512,1324.413574 1722.650635,1324.339111 
	C1748.459473,1324.229370 1774.268555,1324.201172 1800.985962,1323.925781 
	C1801.916260,1330.045776 1801.957275,1336.377930 1801.957275,1342.710205 
	C1801.960327,1778.027222 1801.960205,2213.344238 1801.960205,2648.661133 
	C1801.960205,2653.259521 1801.960205,2657.857666 1801.960205,2662.156494 
	C1793.774292,2664.313965 1683.106934,2664.796387 1670.841675,2662.876221 
	C1670.565186,2660.543701 1670.194214,2658.012207 1669.988647,2655.467773 
	C1669.854858,2653.812012 1669.961182,2652.136475 1669.961182,2650.469971 
	C1669.961304,2212.486328 1669.960815,1774.502808 1669.965820,1336.519287 
	C1669.965820,1333.186646 1670.037842,1329.854126 1670.074707,1325.630981 
z"/>
<path fill="#C6C4CB" opacity="1.000000" stroke="none" 
	d="
M2070.062012,2680.669922 
	C2070.406494,2680.117676 2070.766357,2680.082031 2071.607422,2680.296387 
	C2072.050293,2681.118652 2071.789062,2681.558105 2070.929199,2681.984375 
	C2070.394775,2681.797607 2070.236084,2681.491943 2070.062012,2680.669922 
z"/>
</svg>